<svg width="1300" height="219" viewBox="0 0 1300 219" fill="none" xmlns="http://www.w3.org/2000/svg">
<path d="M1074.48 218.421C1054.5 218.421 1036.95 214.044 1021.82 205.291C1006.78 196.442 995.033 183.882 986.565 167.612C978.192 151.246 974.005 131.884 974.005 109.524C974.005 86.4982 978.382 66.8501 987.135 50.5798C995.984 34.2143 1007.93 21.7023 1022.96 13.0439C1037.99 4.38539 1054.88 0.0561523 1073.63 0.0561523C1085.61 0.0561523 1096.79 1.81639 1107.16 5.33687C1117.54 8.7622 1126.77 13.7099 1134.85 20.18C1142.94 26.5549 1149.51 34.1192 1154.55 42.8728C1159.69 51.5313 1162.97 61.1412 1164.4 71.7026H1118.87C1117.44 66.6598 1115.4 62.1878 1112.73 58.2868C1110.16 54.2906 1106.97 50.9604 1103.17 48.2962C1099.36 45.5369 1095.03 43.4437 1090.18 42.0164C1085.42 40.4941 1080.14 39.7329 1074.34 39.7329C1063.49 39.7329 1053.93 42.4446 1045.65 47.8681C1037.47 53.1964 1031.05 61.0461 1026.38 71.4172C1021.82 81.7883 1019.53 94.3479 1019.53 109.096C1019.53 123.844 1021.82 136.403 1026.38 146.774C1030.95 157.146 1037.33 165.09 1045.51 170.609C1053.79 176.033 1063.54 178.744 1074.77 178.744C1084.95 178.744 1093.61 176.936 1100.74 173.321C1107.97 169.61 1113.49 164.424 1117.3 157.764C1121.2 151.104 1123.15 143.254 1123.15 134.215L1132.28 135.642H1077.62V101.817H1166.54V128.649C1166.54 147.298 1162.59 163.33 1154.69 176.746C1146.79 190.162 1135.9 200.486 1122.01 207.717C1108.21 214.853 1092.37 218.421 1074.48 218.421Z" fill="#D6D6D6"/>
<path d="M962.148 2.91211V215.568H923.327L830.986 81.8374H829.131V215.568H784.316V2.91211H823.707L915.478 136.643H917.333V2.91211H962.148Z" fill="#D6D6D6"/>
<path d="M768.606 2.91211V215.568H723.791V2.91211H768.606Z" fill="#D6D6D6"/>
<path d="M579.057 215.568V2.91211H623.872V178.46H715.072V215.568H579.057Z" fill="#D6D6D6"/>
<path d="M475.571 218.421C456.731 218.421 439.843 214.139 424.904 205.576C409.966 197.013 398.168 184.596 389.509 168.326C380.851 152.055 376.521 132.407 376.521 109.381C376.521 86.1652 380.851 66.4219 389.509 50.1516C398.263 33.7861 410.109 21.3693 425.047 12.9011C440.08 4.33782 456.922 0.0561523 475.571 0.0561523C487.94 0.0561523 499.405 1.81639 509.967 5.33687C520.528 8.7622 529.853 13.805 537.94 20.4654C546.123 27.0306 552.783 35.1182 557.921 44.7282C563.059 54.243 566.342 65.1374 567.769 77.4115H522.383C521.527 71.6075 519.814 66.3744 517.245 61.7121C514.772 57.0498 511.489 53.1012 507.398 49.8662C503.401 46.6311 498.787 44.1573 493.554 42.4446C488.416 40.6368 482.754 39.7329 476.57 39.7329C465.723 39.7329 456.16 42.4922 447.883 48.0108C439.7 53.4342 433.325 61.3315 428.758 71.7026C424.286 81.9786 422.05 94.5382 422.05 109.381C422.05 124.51 424.333 137.26 428.9 147.631C433.468 157.907 439.843 165.661 448.025 170.895C456.208 176.128 465.675 178.744 476.427 178.744C482.421 178.744 487.987 177.935 493.125 176.318C498.263 174.7 502.831 172.369 506.827 169.325C510.823 166.28 514.153 162.569 516.817 158.192C519.577 153.72 521.432 148.63 522.383 142.921H567.769C566.627 152.721 563.725 162.141 559.063 171.18C554.496 180.219 548.264 188.307 540.366 195.443C532.469 202.484 523.097 208.097 512.25 212.284C501.403 216.375 489.177 218.421 475.571 218.421Z" fill="#D6D6D6"/>
<path d="M189.974 2.91211H240.355L288.881 94.5397H290.879L339.404 2.91211H389.785L312.287 140.496V215.568H267.615V140.496L189.974 2.91211Z" fill="#D6D6D6"/>
<path d="M99.0491 218.421C80.2098 218.421 63.321 214.139 48.3828 205.576C33.4445 197.013 21.6462 184.596 12.9877 168.326C4.32924 152.055 0 132.407 0 109.381C0 86.1652 4.32924 66.4219 12.9877 50.1516C21.7413 33.7861 33.5873 21.3693 48.5255 12.9011C63.5589 4.33782 80.4001 0.0561523 99.0491 0.0561523C111.418 0.0561523 122.884 1.81639 133.445 5.33687C144.007 8.7622 153.331 13.805 161.419 20.4654C169.601 27.0306 176.262 35.1182 181.4 44.7282C186.538 54.243 189.82 65.1374 191.248 77.4115H145.862C145.006 71.6075 143.293 66.3744 140.724 61.7121C138.25 57.0498 134.968 53.1012 130.876 49.8662C126.88 46.6311 122.265 44.1573 117.032 42.4446C111.894 40.6368 106.233 39.7329 100.048 39.7329C89.2013 39.7329 79.6389 42.4922 71.3611 48.0108C63.1783 53.4342 56.8034 61.3315 52.2363 71.7026C47.7643 81.9786 45.5284 94.5382 45.5284 109.381C45.5284 124.51 47.8119 137.26 52.379 147.631C56.9461 157.907 63.321 165.661 71.5038 170.895C79.6865 176.128 89.1537 178.744 99.9055 178.744C105.9 178.744 111.466 177.935 116.604 176.318C121.742 174.7 126.309 172.369 130.305 169.325C134.301 166.28 137.632 162.569 140.296 158.192C143.055 153.72 144.911 148.63 145.862 142.921H191.248C190.106 152.721 187.204 162.141 182.542 171.18C177.974 180.219 171.742 188.307 163.845 195.443C155.948 202.484 146.576 208.097 135.729 212.284C124.882 216.375 112.655 218.421 99.0491 218.421Z" fill="#D6D6D6"/>
<path d="M1243.26 113.264C1235.49 113.264 1228.19 111.79 1221.36 108.842C1214.53 105.893 1208.53 101.83 1203.35 96.6522C1198.17 91.4025 1194.11 85.3617 1191.16 78.5299C1188.21 71.6981 1186.74 64.3629 1186.74 56.5243C1186.74 48.7576 1188.21 41.4583 1191.16 34.6265C1194.11 27.7947 1198.17 21.7899 1203.35 16.6121C1208.53 11.4343 1214.53 7.37117 1221.36 4.4227C1228.19 1.47423 1235.49 0 1243.26 0C1251.1 0 1258.43 1.47423 1265.27 4.4227C1272.1 7.37117 1278.1 11.4343 1283.28 16.6121C1288.53 21.7899 1292.63 27.7947 1295.58 34.6265C1298.53 41.4583 1300 48.7576 1300 56.5243C1300 64.3629 1298.53 71.6981 1295.58 78.5299C1292.63 85.3617 1288.53 91.4025 1283.28 96.6522C1278.1 101.83 1272.1 105.893 1265.27 108.842C1258.43 111.79 1251.1 113.264 1243.26 113.264ZM1243.48 94.279C1250.31 94.279 1256.56 92.5531 1262.25 89.1012C1268 85.6494 1272.6 81.0828 1276.05 75.4016C1279.5 69.6485 1281.23 63.3561 1281.23 56.5243C1281.23 49.5486 1279.5 43.2202 1276.05 37.539C1272.6 31.7859 1268 27.2194 1262.25 23.8394C1256.56 20.4595 1250.31 18.7695 1243.48 18.7695C1236.5 18.7695 1230.14 20.4595 1224.38 23.8394C1218.7 27.2194 1214.17 31.7859 1210.79 37.539C1207.41 43.2202 1205.72 49.5486 1205.72 56.5243C1205.72 63.3561 1207.41 69.6485 1210.79 75.4016C1214.17 81.0828 1218.7 85.6494 1224.38 89.1012C1230.14 92.5531 1236.5 94.279 1243.48 94.279ZM1225.35 82.1975V30.851H1246.93C1252.46 30.851 1256.74 32.3972 1259.76 35.4895C1262.78 38.5818 1264.4 42.7168 1264.62 47.8946C1264.62 50.9869 1263.9 53.8634 1262.46 56.5243C1261.02 59.1132 1258.79 61.2706 1255.77 62.9965L1265.27 82.1975H1254.26L1245.85 64.7224H1235.06V82.1975H1225.35ZM1235.06 55.6613H1247.36C1249.52 55.6613 1251.28 54.9422 1252.64 53.5039C1254.01 51.9937 1254.69 50.1239 1254.69 47.8946C1254.69 45.3776 1254.08 43.4719 1252.86 42.1775C1251.71 40.8111 1249.88 40.1279 1247.36 40.1279H1235.06V55.6613Z" fill="#D6D6D6"/>
</svg>
